<svg version="1" xmlns="http://www.w3.org/2000/svg" width="682.667" height="682.667" viewBox="0 0 512.000000 512.000000"><path d="M86.8 31.8c1.8 2.2 2.9 4.2 2.5 4.6-.3.3-.1.6.5.6.7 0 1.2.7 1.2 1.6 0 .9 1.7 5 3.9 9.2 7.4 14.8 14.5 31.1 15.6 36.2.1.3 1.4 3.2 2.9 6.5s3.4 7.8 4.2 9.9c.8 2.2 1.9 4.5 2.5 5.3.6.7.8 1.3.4 1.3s-.3.6.3 1.2c.6.7 2.7 5.3 4.7 10.3 2 4.9 4.1 9.9 4.6 11 .6 1.2 1.1 2.7 1.2 3.5.2.8.6 2.1 1 2.7.5.7.5 1.3.1 1.3-.3 0-.1.7.6 1.5s.9 1.5.4 1.5-.4.4.2.8c.5.4 2 4.1 3.3 8.2 1.2 4.1 2.6 8.4 3.1 9.5.7 1.7 1.6 4.9 2.5 9 .2.5 1.2 4.1 2.3 8 1.1 3.8 2.2 8.1 2.5 9.5.3 1.4.8 3.6 1.1 5 3.2 12.8 6.4 34.6 7.1 49 .2 3 .4 5.6.5 5.7.5.8.3 6.1-.4 7.1-.4.7-.3 1.2.2 1.2 1.2 0 1 10-.2 11.9-.6.9-.5 1.2.1.8.5-.4 1 1.2 1 3.8.1 3.1-.3 4.3-1.1 3.8-.6-.4-.4.1.4 1.2 1.7 2.1 1.7 2.4-.2 3.6-.7.5-.8.9-.2.9.8 0 1.2 5.9.4 6.7-.6.7-.3 5 .4 6.1.4.6.4 1.2-.1 1.2-.4 0-.8 2.8-.7 6.2 0 3.5-.2 6.7-.5 7.3-.7 1.2-1 4.3-1.4 11.3-.1 4-.5 5.1-1.6 4.7-1.1-.4-1.1-.2-.2.9.7.8.8 1.7.4 1.9-.5.3-.8 2.4-.7 4.6 0 2.3-.4 4.1-.9 4.1-.6 0-.7.3-.4.7.4.3.1 1.3-.6 2.1-.9 1.2-.9 1.4 0 .9.9-.6.9.3-.2 3.3-.8 2.2-1.4 4.2-1.5 4.5 0 .3 0 .6-.1.7 0 .2-.3 1.6-.5 3.3-.3 1.6-.7 3.7-1.1 4.5-.8 2-.8 1.8-2.3 7.3-.7 2.6-1.6 5-2.1 5.3-.5.3-.9 1.2-.9 1.9 0 .8-1.2 4-2.7 7.2-1.5 3.2-2.6 6.1-2.5 6.6.1.4-.3.7-.9.7-.5 0-.7.5-.4 1 .3.6.2 1-.3 1s-1.5 1.4-2.3 3.1c-.7 1.8-2.2 4.3-3.4 5.8-1.2 1.4-2.4 3.1-2.6 3.7-.6 1.7-5 7.2-9.6 12.2-2.4 2.5-4.3 4.8-4.3 5.1-.2 1.8-17.9 15.2-25.1 19-19.2 10.1-29 17.2-31.9 23.4-2.1 4.3-2.7 9.7-1 9.7.6 0 1 .9 1 2 0 6.8 7.6 14.3 15.1 14.9 3.7.2 11.6-2.4 13.4-4.5.6-.6 3-2.2 5.5-3.5 2.5-1.3 4.7-2.7 5-3 .3-.4 2.7-1.9 5.4-3.3s5.4-3 6-3.5c.6-.5 1.9-.7 2.8-.6 1 .2 1.6-.2 1.5-.8-.1-.6.3-1.2.8-1.2 1.3-.2 10.2-4 13.7-5.9 2.5-1.3 2.9-1.3 3.9.2 1 1.6 1 1.6.5-.1-.4-1.3.2-2 2-2.7 1.4-.6 2.9-.8 3.4-.5.4.3 1-.1 1.3-.9.3-.7 1.8-1.2 3.6-1.1 1.8.1 2.8-.2 2.4-.8-.4-.6.1-.8 1.1-.4.9.4 1.5.3 1.2-.2-.3-.5.1-1.2 1-1.5 2.3-.9 2.6-.8 1.9.6-.4.7 0 .5.8-.4.8-1 1.7-1.5 2-1.1.4.3.7 0 .7-.7 0-.9.5-.7 1.6.6.8 1 1.3 1.4 1 .8-.3-.7.5-1.9 1.9-2.8 1.6-1.1 2.5-1.2 2.5-.5 0 .8.4.8 1.5-.1.8-.7 2.2-1 3-.6 1.1.4 1.4.2.9-.6-.5-.8-.2-.9.9-.5 1 .4 1.7.1 1.7-.5s.3-.9.6-.5c.4.3 2.2 0 4-.8 2.5-1 3.4-1.1 3.4-.2.1.7.5.6 1.3-.4.7-.9 2.1-1.5 3.2-1.3 1 .2 2.4-.1 3-.5.5-.4 1.9-.8 3-.9 1.1 0 3.4-.3 5-.7 2.9-.6 8-1.6 10-1.9.6-.1 1.5-.4 2-.7.6-.3 2.3-.6 3.8-.7 1.5-.1 3.7-.7 4.9-1.3 1.2-.6 1.8-.7 1.4-.1-.3.5.1 1.2.9 1.6.8.3 1.7 0 2.1-.6.5-.7.2-.8-.7-.3-.8.5-1 .4-.6 0 .4-.5 1.3-1 2-1.1 7.2-1.3 8.7-1.4 8.7-.5 0 .6.4 1.1 1 1.1.5 0 .6-.8.3-1.8-.7-1.6-.6-1.6 1 0 1.8 1.8 5.2 1.4 4.1-.4-.4-.6-.1-.9.6-.6.8.2 1.4 1.4 1.5 2.6.1 1.2.5 2.5 1 2.9.4.5.4-.3 0-1.7-.7-2.2-.6-2.3.9-1.1.9.7 1.6.9 1.6.3 0-.5-.7-1.2-1.5-1.6-2.6-.9-1.7-2.1 1.8-2.2 1.7-.1 5.6-.4 8.5-.7 5.3-.5 6.1-.1 3.9 2.2-.8.9-.8 1.2 0 .7.6-.3 1.3-.3 1.6.1.2.5.2.3.1-.4-.2-.7.1-1.5.7-1.8.5-.4.7-1.1.4-1.6-.4-.5.5-.4 1.9.2 1.4.7 2.2 1.7 1.9 2.3-.4.6 0 .6.9-.1.8-.7 1.9-.9 2.3-.5.5.4.5.1.1-.6s-1.1-1-1.6-.7c-.5.3-1.1.2-1.4-.3-.3-.5.9-.8 2.7-.7 1.8.1 3.8-.2 4.5-.8.8-.6 1.2-.6 1.2.3 0 .9.3 1 1.3.1.8-.6 1.7-.8 2.1-.4 1.1 1.2 3.6 1.2 3.6 0 0-.6.7-.2 1.6.9.8 1 1.3 1.4 1 .7-.4-.6-.2-1.4.4-1.8.5-.3 1-.2 1 .2 0 .5.7 1.8 1.5 2.9 1.5 1.9 1.5 1.9.8-.1-.6-1.8-.5-1.8 1-.6.9.7 1.7.9 1.7.4 0-1.2 3.8-1.4 4.5-.3.7 1.1 3.5.1 3.5-1.2 0-.7-.5-.6-1.4.1-1 .9-1.6.8-2.5-.3-1-1.2-.8-1.3 1-.9 1.5.4 2 .3 1.5-.5-.4-.7-.3-1.2.2-1.2.6 0 1.2.6 1.5 1.4.3.8 1.6 2 2.9 2.6 2.1 1 2.1 1 .6-.3-2-1.6-2.4-3.7-.7-3.7.5 0 .8.4.5.8-.2.4.3 1.3 1.3 1.9 1.4.9 1.8.8 1.8-.3 0-.7-.5-1-1-.7-.6.4-.7.1-.2-.7.6-1 1.1-.9 2.2.5 1.1 1.7 1.7 1.4 1.4-.7 0-.4.6-.5 1.4-.2 1.6.7 2 2 .7 2.7-.4.2-.2.2.5.1.6-.2 1.4.2 1.7.9.3.7.3.2.1-1-.3-1.2 0-2.5.6-2.9.7-.4.9-.3.6.3-.4.6.4 1.8 1.8 2.7 1.7 1.1 2.6 1.3 3.1.4.5-.7.3-.8-.6-.3-.8.5-1.1.3-.8-.5.6-2 2.8-2.4 2.8-.6 0 2 1.7 2.9 2.6 1.5.4-.8.3-.9-.4-.5-.8.5-1.2-.1-1.2-1.5 0-1.5.4-1.9 1.3-1.2.6.5 5.6.9 10.9.8 7.9 0 9.8.3 9.8 1.4 0 1.1.4.9 1.6-.5 1.4-1.8 1.5-1.8.8.6-.6 2.4-.5 2.4.9.5 1.3-1.6 1.7-1.7 3.1-.6 1.4 1.2 1.6 1.2 1-.3-.5-1.2-.2-1.5 1-1 .9.3 1.3 1.1.9 1.7-.4.6-.1.7.8.1 1.8-1.1 10.9-1.2 10.9 0 0 .5.7.3 1.5-.4 1-.9 1.5-.9 1.5-.1 0 .6.3 1 .8.9.4-.1 4.9.2 9.9.7 5.9.5 9 1.1 8.6 1.8-.4.6-.1.7.6.2 2-1.2 14.2.4 13.4 1.8-.4.8-.1.7.9-.1.9-.7 1.9-.9 2.2-.4.3.5 1.5.8 2.8.7 1.3-.1 2.9.5 3.6 1.4.8.9 1.1 1 .7.3-.7-1.3 2.1-1.2 4.4.2 1.1.7 1.2.6.6-.5-.7-1.2-.6-1.2.7-.1.9.7 2 1.2 2.4 1.1.5-.1 1.1 0 1.4.1.9.3 3.5.8 7.5 1.5 2.2.3 4.8.8 5.7 1.1 8.3 2.4 28 3.8 32.3 2.3 1.1-.4 4.1-1.3 6.7-1.9 2.6-.7 5.5-2 6.6-3.1 1.1-1 2.2-1.6 2.5-1.3.2.3.7-.2 1-1.1.4-.9.1-1.5-.7-1.5-1.3 0-4.6-3.1-4.6-4.4 0-.4.5-.4 1.2 0s.8.3.4-.5c-.4-.6-1.1-.9-1.6-.6-.5.3-1.8-.3-3-1.5-1.1-1.1-1.8-2-1.5-2 .3 0-.5-1.2-1.9-2.7-1.4-1.5-2.3-2.9-2.1-3.3.2-.3-.5-.7-1.7-.7-1.1-.1-3-1.3-4.3-2.7-1.3-1.4-3.1-2.6-4-2.6-.8 0-1.5-.5-1.5-1 0-.6-.9-1-1.9-1-1.1 0-2.6-.7-3.5-1.5-.8-.9-1.9-1.7-2.3-1.8-.4-.1-.7-.6-.5-1.1.2-.5-.4-.3-1.3.4-1.3 1.1-1.8 1.1-2.8 0-1-1-.8-1.2.8-.6 1.8.6 1.9.5.3-.7-1-.8-1.6-1.7-1.3-2 .3-.4.2-.4-.2-.1-.5.3-.8 1.1-.8 1.7 0 1.4-3.7 1-4.6-.5-.3-.5-.9-.9-1.3-.9-.3.1-2.9-.1-5.6-.5-4.9-.6-6.3-1.7-3.7-2.7.9-.4.9-.6 0-.6-.6-.1-1.5.3-1.8.9-1 1.6-2.2 1.1-2.8-1.2-.6-2.1-.7-2.1-2.5-.5-1.4 1.3-2.5 1.5-4.3.9-1.3-.5-3.6-.9-5.1-.8-1.4.1-2.4-.2-2.2-.6.3-.4-1.3-.8-3.4-.8-4 0-6-1.9-4.5-4.2.3-.7.1-.8-.5-.4-.7.4-1.2.1-1.2-.9s-.5-1.3-1.2-.9c-.6.4-.8.3-.4-.4.3-.6-.2-1.3-1.1-1.6-1-.4-2.9-1.6-4.3-2.7s-1.9-1.8-1.2-1.4c.6.3 1.2.1 1.2-.4 0-1.4-1.3-1.4-2.7 0-1.3 1.3-4.7-1.7-3.7-3.3.4-.7.2-.8-.5-.4-.6.4-.9 1.2-.6 1.7.4.5-.3.9-1.4.9-1.1 0-2.3-.5-2.6-1-.5-.8-1.2-.7-2.3.2-1.1.9-1.4.9-.9.1.6-.9-.3-1.1-3-1-2.1.2-4.8-.1-6-.5-1.4-.5-2.3-.4-2.3.3 0 .6-.5.7-1 .4-.8-.5-.7-1.2.2-2.3 1.2-1.6 1.1-1.6-.7-.1-2.4 1.9-8.9 2.4-7.8.6.5-.9.3-.9-.8-.1-2 1.5-7.2 1.7-6.3.2.5-.7.3-.8-.6-.3-2.3 1.5-11.3 1.6-12.2.3-.6-1-.8-1-.8-.1 0 .7-.9 1.3-2.1 1.3-1.2 0-1.7-.4-1.4-1.1.4-.6-.3-.5-1.5.3-1.8 1-2.4 1-2.7 0-.3-.6-.9-1.2-1.4-1.2-.6 0-.8.4-.4.9.3.5.1 1.2-.5 1.6-.5.3-1 .1-1-.5 0-.7-.6-.8-1.8-.1-1.3.7-2.2.7-2.9 0-.8-.8-1.3-.7-1.7 0-.4.6-1.2 1.1-1.8 1.1-.6 0-.5-.7.3-1.8 1.2-1.5 1.1-1.5-.8.1-1.4 1.3-2.3 1.5-2.8.7-.4-.7-1.1-.8-1.8-.2-.7.5-3.7.9-6.7 1-3 0-5.5.1-5.5.2s-2.9.3-6.4.5c-3.6.3-7.1.7-7.8.9-.7.3-1.3.1-1.3-.5s-.7-.6-1.7-.1c-1 .4-2.5.8-3.3.7-.8-.1-2.1.4-2.9.9-1.2.9-1.3.8-.6-.4.7-1.2.6-1.3-.6-.4-.8.6-3.1 1-5.1 1-2.1-.1-3.8.2-3.8.6 0 .4-1.2.3-2.6-.2-1.8-.7-2.3-.7-1.8.1.4.7-.3 1-1.7.9-1.3-.1-2.6-.1-2.9 0-.3.1-2.2.3-4.2.6-2.1.2-5.5.6-7.5.8-2.1.3-3.8.5-3.8.6 0 .1-1.3.3-3 .5-1.6.2-4.1.7-5.5 1.1-1.4.3-4.1.8-6 1-3.8.5-6.1.9-10 1.9-1.4.4-3.7.8-5.1.9-1.4.1-3.1.6-3.7 1-.7.4-1.2.2-1.2-.5s-.6-.5-1.4.6c-.8 1.2-2 1.6-3.4 1.3-1.1-.3-3.1.1-4.3 1-1.2.8-1.9 1.1-1.6.5.4-.6 0-1.3-.8-1.6-.9-.4-1.2-.1-.9.7.4 1-.2 1.2-2.2.8-2.1-.4-2.5-.2-1.9.8.6 1 .4 1.2-.8.7-.9-.3-1.9-.2-2.2.4-.4.5-1 .7-1.5.4-.5-.3-1.1-.1-1.5.5-.4.6-1.1.8-1.6.4-.5-.3-.6-1-.3-1.6.5-.7.2-.8-.5-.4-.7.5-1 1.4-.7 2.2.3.8.1 1.4-.4 1.4-.6 0-1-.7-1-1.6 0-.8-.4-1.3-1-.9-.5.3-.7 1.3-.4 2.3.5 1.4.4 1.5-.5.2s-1.1-1.3-1.1 0c0 1.2-.2 1.2-.9.2-1.1-1.8 1-6.2 2.9-6.2 1.3 0 1.3-.2 0-1.1-1.3-.9-1.2-1 .3-.5.9.3 1.7.1 1.7-.4 0-.6-.6-1-1.2-1-.9 0-.8-.4.2-1 .8-.5 1.2-1 .7-1-.4 0-.1-1 .8-2.3.8-1.3 1.2-2.7.8-3-.3-.4-.1-.7.6-.7.8 0 1.1-.7.7-1.8-.5-1.4-.3-1.3 1 .3 1.5 1.9 1.5 1.9 1.1-1.2-.3-1.8-.1-3.5.4-3.9.5-.3.7-.9.4-1.4-.3-.5 0-1.2.6-1.6.8-.5.9-.3.4.6-.5.8-.3 1.1.5.8 1.6-.5 2.2-3.6.9-4.4-.5-.3-.9 0-.9.7s-.3 1-.6.6c-.3-.3-.3-1.1.1-1.7.5-.8 1.1-.8 2.1.1.8.6 1.8.9 2.1.5.4-.4.1-1.1-.7-1.6-.7-.5-1.4-1.8-1.5-2.9-.1-1.6.2-1.8 1.5-1.1 2.3 1.2 3.4 0 1.3-1.5-.9-.7-1.3-1.7-.9-2.4.6-.8 1.2-.9 2-.2.7.6 1.6.8 1.9.4.4-.3.7-.1.7.4 0 .6-.6 1.4-1.2 1.6-1 .4-1 .6-.1.6.6.1 1.4-.3 1.7-.8.8-1.2-.4-4.2-1.3-3.7-1.1.7-3.6-1.2-2.8-2.1.5-.4 1.2-.2 1.6.5.5.9 1.2.7 2.7-.9 1.9-2.2 1.9-2.2-.3-1.5-1.2.4-2.4.2-2.8-.3-.4-.7.1-.8 1.2-.4 1.6.6 1.7.5.3-1.2-.9-1.2-1-1.6-.2-1.1.9.6 1.1.1.8-1.8-.3-1.8-.1-2.3 1-1.9.8.3 1.4.9 1.4 1.4 0 .5.5.9 1.2.9.6 0 .8-.3.5-.7-.4-.3.1-1.2 1.1-1.9 1.6-1.2 1.5-1.3-.8-2.3-1.5-.6-1.9-1-.9-1 .9-.1 2.3-.8 3-1.7 1.1-1.4 1.1-1.8-.4-2.9-1.4-1-1.5-1.4-.4-2.4.8-.6 1.7-.8 2-.4.4.3.7.1.7-.4 0-.6-.6-1.4-1.2-1.7-.7-.3-.4-.4.8-.1 1.8.5 2 .1 2-3.2-.1-2.1-.4-4-.7-4.3-.4-.3 0-1.2.9-2 1.4-1.3 1.5-1.2.9.4-.5 1.2-.3 1.6.5 1.4.7-.3 1.3-.9 1.3-1.4 0-.5.4-1.5.9-2.3.7-1 .3-1.2-1.5-.6-1.7.4-2 .3-1-.3.8-.6 1-1.5.6-2.2-.6-.9-.4-1.1.5-.5 1 .6 1.2.4.7-.8-.3-.9-.2-1.9.4-2.3.5-.3.7-1.3.5-2.2-.9-2.8.8-4.6 3-3.3 1.1.6 1.4 1.1.7 1.1-.6 0-1 .9-.8 2 .3 1.4 0 1.8-.8 1.3-.7-.4-.6 0 .2 1 1.2 1.5.9 2.1-1.1 1.8-.5 0-.8.3-.8.9 0 .5.6 1 1.3 1 .8 0 .7.4-.3 1-1.3.9-1.3 1 0 1s1.3.1 0 1c-1.3.8-1.2 1 .3 1 .9 0 1.6.6 1.5 1.2-.2.7.3 1.3 1.1 1.3s1.5-.6 1.7-1.3c.1-.7 0-.8-.3-.2-.7 1.4-1.9 1.3-2.1-.3 0-.6-.3-2.2-.6-3.5-.4-1.9-.2-2.2 1.4-1.7 1.2.4 2 .2 2-.5 0-.6-.5-.8-1.1-.5-.6.4-.9 0-.7-1.1.2-1.1 1-2.2 1.8-2.6 1.2-.5 1.2-.7-.2-.7-2.1-.1-2.5-2.1-.4-2.1.8 0 1.7-.7 2-1.6.3-.8.2-1.2-.4-.9-.6.3-1 .1-1-.4 0-.6.6-1.1 1.3-1.1.9 0 .9-.2 0-.8-.8-.5-.9-1.3-.3-2.2 1.1-1.8-.6-5-2.6-5-.8 0-1.2.5-.9 1 .4.6 1.1.7 1.7.4.7-.4.8-.2.4.4-.4.7-.2 1.2.5 1.2.8 0 .6.7-.4 2.3-1 1.6-1.2 2.8-.5 4 1.1 2.1 0 2.1-2.6.2-1.1-.8-1.4-1.5-.8-1.5.7 0 1.1-.6 1-1.3-.2-.6.3-1.1 1-.9.6.1 1.2-.5 1.2-1.3 0-1.3-.4-1.4-2.2-.5-2.2 1.1-2.2 1-.4-.4 1.2-1 1.5-1.6.7-1.6s-1.1-.6-.6-1.8c.8-2.1 1.6-5.3 1.7-6.9.2-1.9 1.3-.5 1.3 1.5 0 .9.5 1.7 1 1.7.6 0 1.5.4 2.2.8.7.4 1 .1.8-1-.1-1-.8-1.7-1.4-1.5-.6.1-1.1-.5-1.1-1.4 0-.8.4-1.3.8-1 .4.2 1.4 0 2.2-.6 1.2-.8 1.1-.9-.4-.4-1.4.5-1.7.2-1.2-1 .3-.8.6-1.9.6-2.2 0-.4.4-.1.9.6.7 1.1.9 1 1.4-.3.4-.9.3-1.3-.3-1-.6.3-1 0-1-.7 0-.9-.3-.9-1 .2-.8 1.2-1 1.1-1-.6 0-2.9 1.1-3.7 2.5-1.8 1.1 1.5 1.2 1.5 1.2.1 0-.9-.7-1.9-1.4-2.1-.8-.3-1.1-1-.8-1.6.3-.5.1-1-.5-1-.7 0-.9.7-.6 1.6.4 1 .2 1.3-.6.8-.6-.4-.8-.3-.5.2.3.6.1 1.6-.4 2.4-.7 1.1-.8.6-.3-1.5.6-3.2 1.2-6.5 1.3-7.8.1-.5.6-.5 1.1-.2.6.3 1 .1 1-.4 0-.6-.4-1.1-.9-1.1s-.8-1.4-.7-3c.2-3 1.1-3.9 2.4-2.4.4.4.2.5-.3.1-.7-.3-1.1.4-1.1 1.8 0 1.3.3 2.2.7 2 .3-.3.6.5.5 1.6 0 1.1-.8 2.4-1.6 2.9-1.4.9-1.3 1 1.8 1 .4 0 .7-1.2.8-2.7 0-1.6.6-2.7 1.2-2.6.6.2.9-.4.5-1.3-.4-1.1-.8-1.2-1.3-.4-.5.8-1 .9-1.4.2-.3-.6.6-2 2.1-3.2 2.4-1.8 2.5-2 .4-.9-2.1 1-2.3.9-1.8-.5.4-.9.2-1.5-.5-1.3-1 .2-1.5-3.2-.8-4.8.1-.3.3-1.3.4-2.3.1-.9.5-2.3.9-3 .5-.6.4-1.2-.1-1.2s-.9-.7-.9-1.4c0-.8.5-1.4 1-1.3.5.1 1.2-.4 1.5-1.2.3-.9 0-1.1-.8-.6-.9.6-1 .3-.2-1.1.5-1.1.8-2.9.6-4.1-.2-1.2 0-2.4.5-2.7.4-.3.7.5.6 1.8-.2 1.4.2 2.3 1.1 2.3 1 0 1.1-.4.4-1.2-.6-.7-.8-2-.4-2.9.4-1.1.1-1.6-1-1.6-1.2 0-1.4-.5-.7-2.3.4-1.2.7-4.8.6-8-.2-5.4.5-7.1 2.1-4.5.4.6.3.8-.3.5-.5-.3-1 0-1 .8 0 1.8 2.4 2.8 3.3 1.3.4-.7.3-.8-.4-.4s-1.2.2-1.2-.3c0-.6.6-1.1 1.3-1.1.8 0 .7-.4-.3-1-1.4-.9-1.3-1.1.9-1.4.5 0 1.2-.4 1.6-.8.9-.8-1.6-.5-3.1.5-.7.4-1.7 0-2.4-.8-1.1-1.3-1-1.4.2-1 .8.3 2.1-.1 2.8-.9.7-.9 1.7-1.3 2.3-.9.6.3.7.1.3-.6-.4-.6-1.1-.9-1.6-.6-1.5.9-2.3-1.7-.9-2.7 1.1-.8 1-.8-.4-.4-1 .3-2.1.6-2.3.6-.3 0-.2.4.1 1 .3.5.2 1-.3 1-1.2 0-.9-6.7.3-7.8.4-.4.4 0 0 .8-.8 1.3-.7 1.3.8.1 1.8-1.4 2.3-2.6.8-1.7-.5.3-.8-.5-.7-1.9 0-1.4.6-2.5 1.1-2.5.6 0 .2-.5-.7-1.1-.9-.5-1.6-1.5-1.4-2.2.1-.6.1-.9-.1-.5-.9 1.5-2.2.8-1.6-.9.4-1 .2-1.4-.4-1-.7.4-1 0-.8-1 .1-1-.3-2.4-.9-3.2-.9-1.2-.8-1.3.7-.8 1 .4 2.1.7 2.4.7.3 0 0 .7-.7 1.5s-1 1.6-.6 1.6c.3.1.9.2 1.4.3 1.6.3 3.2 1.8 2.7 2.6-.3.5-.1 1.1.4 1.4 1.4.9.7-1.9-.9-4-.8-.9-1.5-2.8-1.5-4.2-.1-1.4-.7-2.7-1.5-3-1.2-.3-1.3-.2-.1.6.9.7 1 1.2.2 1.6-.6.4-1.1.3-1.1-.3s-.8-.8-1.7-.5c-1.4.4-1.5.3-.5-.4.8-.5 1.4-1.3 1.5-1.8.1-.5.7-.8 1.3-.6.6.1 1.6-.4 2.3-1.2.9-1.1.6-1.3-1.3-1.1-1.4.2-3.1.7-3.8 1.1-1 .6-1 .4-.2-.7 1.3-1.9 1-12.5-.5-14.3-.8-1-.9-1.6-.1-2.1.5-.3 1-1.1 1-1.6 0-.6-.4-.8-.8-.5-.5.3-.8-1.1-.7-3 .1-1.8-.1-3.4-.4-3.4-.4 0-.7-.9-.7-1.9 0-1.1.5-1.7 1.1-1.3.5.3.4-.2-.4-1.1-.7-.9-1-1.7-.6-1.7s.3-.6-.2-1.3c-1-1.1-1.6-4-3-12.7-.3-1.9-.9-4-1.4-4.6-.5-.6-1-2.7-1.1-4.7-.2-2-.6-3.7-.9-3.7-.3 0-1.2-2.6-1.9-5.8-.7-3.1-2.1-7.5-3.1-9.6-1-2.2-1.7-4.2-1.4-4.4.3-.3-.1-1-.8-1.6-.7-.6-2.4-3.6-3.7-6.6-1.4-3-3-6.1-3.6-6.7-.7-.7-2.1-2.8-3.3-4.6-2-3.3-9.8-9.3-10.7-8.4-.3.2.9 1.9 2.6 3.7 1.6 1.8 3 4.3 3 5.6 0 1.3.3 2.4.8 2.4.7 0 .8 1.1 1.3 8 .2 1.6.6 3 1 3 .5 0 .8 1.2.8 2.7 0 1.6.2 5.4.4 8.5.3 4.7.1 5.6-1 4.7-.7-.6-1.3-2-1.3-3 0-1.1-.3-1.9-.7-1.9-.5 0-1.3-1.1-2-2.5-.6-1.4-.7-2.3-.2-1.9.5.3.9 0 .9-.5 0-.6-.7-1.1-1.6-1.1-.8 0-1.2-.5-.9-1 .3-.6.1-1-.5-1s-.8-.5-.5-1c.3-.6-.1-1-.9-1-.9 0-1.6-.9-1.6-2.1 0-1.1-.4-1.7-1-1.4-.5.3-1 .1-1-.5s-.6-1.8-1.2-2.5c-3.1-3.5-3.8-4.5-3.1-4.5.4 0 .3-.4-.3-.8-1.4-.9-11.4-12.9-11.4-13.7 0-.3-2.2-2.8-5-5.7-2.7-2.8-5-5.6-5-6 0-.5-.4-.6-1-.3-.5.3-1-.1-1-.9 0-.9-.5-1.6-1-1.6-.6 0-3.2-2.2-5.8-4.8-2.6-2.7-6.3-6-8.2-7.3-4.7-3.2-6.9-4.9-10.3-8.2-1.6-1.5-3.2-2.7-3.7-2.7-.4 0-1.1-.7-1.4-1.6-.3-.8-1-1.2-1.6-.9-.5.3-1 .2-1-.2 0-1-9.4-8.3-14-10.9-1.9-1-3.7-2.2-4-2.5-.3-.3-1.8-.9-3.4-1.3l-2.8-.7 3 3.9zm126.8 176.8c.4 2.4-1.2 5.1-2.3 4-.4-.5-.2-1.1.5-1.3.6-.3 1.2-.9 1.2-1.4 0-.6-.6-.7-1.2-.3-.7.4-1 .4-.6-.1.4-.4.3-1.4-.3-2.1-.7-.9-.6-1.2.7-1 1 .2 1.9 1.1 2 2.2zm1.9 14.4c-.3.5-1.3.6-2.1.3-1.2-.4-1.3-.8-.3-1.4 1.5-.9 3.2-.2 2.4 1.1zm-9.3 69.7c-.6.3-.9 1-.5 1.6.4.7-.1.6-1-.2-1.4-1.1-1.5-1.7-.6-2.8.9-1 1.5-1.1 2.3-.2.8.8.8 1.3-.2 1.6zm-16.4 51.5c-.2.6-1 1.3-1.6 1.4-.7.1-.8 0-.2-.3.5-.2.8-.9.4-1.4-.3-.5 0-.9.6-.9.7 0 1 .5.8 1.2zm-1.1 5.4c-.3.3-1.2.4-1.9.1-.8-.3-.5-.6.6-.6 1.1-.1 1.7.2 1.3.5zm222.3 50c0 .8-.5 1.2-1 .9-.6-.4-.8-1.1-.5-1.6.9-1.4 1.5-1.1 1.5.7zM305 427c0 .5-.4 1-1 1-.5 0-1-.5-1-1 0-.6.5-1 1-1 .6 0 1 .4 1 1zm-24 .8c0 .4-.9.8-2 .9-1.1.1-2-.2-2-.5 0-.4.9-.8 2-.9 1.1-.1 2 .2 2 .5z"/><path d="M167.6 85.8c-.3.5.1.9.9.9s1.2-.4.9-.9c-.3-.4-.7-.8-.9-.8-.2 0-.6.4-.9.8zM179.1 118.7c.7 1.2 1.5 2 1.8 1.7.3-.2-.3-1.2-1.3-2.2-1.7-1.6-1.8-1.6-.5.5zM205.6 137.8c-.3.5.1.9.9.9s1.2-.4.9-.9c-.3-.4-.7-.8-.9-.8-.2 0-.6.4-.9.8zM205.6 142.2c.3.5 1 .6 1.5.3 1.3-.9 1.1-1.2-.6-1.2-.8 0-1.2.4-.9.9zM209.5 151.1c-.4.6-.5 1.2-.2 1.5.2.3.7-.2 1-1.1.7-1.7.1-2-.8-.4zM208.6 155.8c-.3.5.1.9.9.9s1.2-.4.9-.9c-.3-.4-.7-.8-.9-.8-.2 0-.6.4-.9.8zM212.6 159.8c-.3.5.1.9.9.9s1.2-.4.9-.9c-.3-.4-.7-.8-.9-.8-.2 0-.6.4-.9.8zM208.6 163.8c-.3.5.1.9.9.9s1.2-.4.9-.9c-.3-.4-.7-.8-.9-.8-.2 0-.6.4-.9.8zM220.4 168.2l-1.9 2.3 2.3-1.9c2.1-1.8 2.7-2.6 1.9-2.6-.2 0-1.2 1-2.3 2.2zM209 167.4c0 .2.7.7 1.6 1 .8.3 1.2.2.9-.4-.6-1-2.5-1.4-2.5-.6zM210.9 173.7c-1.3 1.6-1.2 1.7.4.4.9-.7 1.7-1.5 1.7-1.7 0-.8-.8-.3-2.1 1.3zM209.6 177.1c1 1.5 2.3 2.5 2.7 2.2.5-.3.7-.6.5-.7-.2 0-1.4-1-2.7-2.1l-2.5-2 2 2.6zM215 175.5c0 .7 3 1.3 3.4.7.3-.4-.4-.9-1.5-.9-1-.1-1.9 0-1.9.2zM210 181.5c0 .2.6.8 1.3 1.4 1 .8 1.4.7 1.4-.2 0-.8-.6-1.4-1.4-1.4-.7 0-1.3.1-1.3.2zM221 186.1c0 .5.5.7 1 .4.6-.3 1-.8 1-1.1 0-.2-.4-.4-1-.4-.5 0-1 .5-1 1.1zM212.5 188c.3.5.8 1 1.1 1 .2 0 .4-.5.4-1 0-.6-.5-1-1.1-1-.5 0-.7.4-.4 1zM218 187.4c0 .2.8 1 1.8 1.7 1.5 1.3 1.6 1.2.3-.4s-2.1-2.1-2.1-1.3zM215 194.1c0 .5.5.7 1 .4.6-.3 1-.8 1-1.1 0-.2-.4-.4-1-.4-.5 0-1 .5-1 1.1zM218.5 194c-.3.6.1.7.9.4 1.8-.7 2.1-1.4.7-1.4-.6 0-1.3.4-1.6 1zM214.4 216.2c-1.2 1.4-1.3 1.8-.3 1 .9-.6 1.8-1 2.1-.7.2.3.5-.2.5-1 0-1.9 0-1.9-2.3.7zM223.5 222.9c-.3.5-.2 1.2.3 1.5.5.3.9-.1.9-.9 0-1.7-.3-1.9-1.2-.6zM214 234c.9.6.9.9-.1 1.3-1.1.4-1.1.6-.1.6.7.1 1 .5.7 1.1-1.1 1.8-1.4 5-.4 5 .5 0 1-.6 1-1.3.1-.6.2-1.9.3-2.7 0-.8.7-1.4 1.5-1.2 1.2.3 1.2 0 .2-1.1-.9-1.2-.9-1.6.1-2 .7-.2 0-.4-1.6-.4s-2.3.3-1.6.7zM215.3 245.2c-.1 1 .3 1.8.9 1.8.6 0 .8-.3.5-.7-.4-.3-.2-1.1.3-1.8.7-.8.6-1.2-.3-1.2-.7 0-1.4.9-1.4 1.9zM212.5 251c-.3.6.1.7.9.4 1.8-.7 2.1-1.4.7-1.4-.6 0-1.3.4-1.6 1zM215 252.9c0 .7-.5.9-1.2.5-.7-.5-.8-.3-.3.5.5.9 1 1 1.8.2.6-.6.8-1.4.4-1.8-.4-.3-.7-.1-.7.6zM211 255.8c0 .4 1 .9 2.2.9 1.8.2 2 0 .8-.7-1.8-1.2-3-1.3-3-.2zM210.9 258.5c-.1.3-.3 1.4-.4 2.5-.1 1.1-.3 2.1-.5 2.2-.1.2-.3 1.2-.4 2.3-.2 1.4.3 2.1 1.5 2.1s1.5-.4.9-1.2c-1.4-1.6.1-2.6 1.9-1.2.9.7.6.1-.7-1.4-1.5-1.6-2-2.8-1.3-3.3.6-.3 1.1-.1 1.1.6s.2 1 .5.7c.8-.7-.5-3.8-1.6-3.8-.5 0-1 .2-1 .5zM214 277.4c0 .2.8 1 1.8 1.7 1.5 1.3 1.6 1.2.3-.4s-2.1-2.1-2.1-1.3zM211 283c-.8.5-1.2 1.2-.9 1.5.4.3 1.2-.1 1.9-1 1.4-1.7 1.1-1.9-1-.5zM211.9 292.7c-1.3 1.6-1.2 1.7.4.4.9-.7 1.7-1.5 1.7-1.7 0-.8-.8-.3-2.1 1.3zM203.3 300.6c0 1.5 2.4 2.7 3.1 1.6.3-.5-.3-1.3-1.3-1.9-1.4-.9-1.8-.8-1.8.3zM207 303.9c0 .6.4 1.3 1 1.6.6.3.7-.1.4-.9-.7-1.8-1.4-2.1-1.4-.7zM210 311.4c0 .2.8 1 1.8 1.7 1.5 1.3 1.6 1.2.3-.4s-2.1-2.1-2.1-1.3zM199.7 314.7c-1 .9-.9 2.3.1 2.3.5 0 .9-.7.9-1.5 0-1.7-.1-1.8-1-.8zM207.3 315.5c0 .8.4 1.2.9.9.5-.3.6-1 .3-1.5-.9-1.3-1.2-1.1-1.2.6zM198.6 319.8c-.3.5.1.9.9.9s1.2-.4.9-.9c-.3-.4-.7-.8-.9-.8-.2 0-.6.4-.9.8zM205.5 320c.3.5.8 1 1.1 1 .2 0 .4-.5.4-1 0-.6-.5-1-1.1-1-.5 0-.7.4-.4 1zM206.8 323.7c.7.3 1.6.2 1.9-.1.4-.3-.2-.6-1.3-.5-1.1 0-1.4.3-.6.6zM210.5 324c-.3.6.1.7.9.4 1.8-.7 2.1-1.4.7-1.4-.6 0-1.3.4-1.6 1zM198.4 327.8c.3.6-.4 1.8-1.6 2.6-1.2.9-1.8 1.9-1.4 2.3.4.4 1.1.1 1.6-.7.6-.8 1-1 1-.4s-.7 1.7-1.5 2.4c-.9.7-1.4 1.9-1.1 2.6.5 1.4-2.7 4.7-3.7 3.7-.4-.3-.7-.2-.7.3 0 .6.5 1.5 1.2 2.2.9.9.8 1.6-.5 3-1.6 1.8-1.4 3.2.6 3.2.5 0 .7-.6.4-1.3-.3-.8.1-1.4.9-1.4 1.9 0 1.9 0-2.1 4.3-2.6 2.8-3.8 3.4-4.8 2.6-1-.8-1.3-.6-1.3.9 0 1 .8 2.2 1.8 2.5 1 .3 1.8 1 1.8 1.5 0 .6-.4.8-.9.5-.5-.3-1.4.1-2.1.9-.7.8-.8 1.5-.3 1.5 1.9 0 1.1 4.1-1.2 5.6-1.5 1-2.2 2.2-1.9 3.2.5 1.5.4 1.5-.9 0-.8-1-1.7-1.5-2-1.1-.4.3.1 1.2 1.1 2 1.6 1.2 1.6 1.4-.2 2.8-1.4 1.1-1.6 1.5-.5 1.5 1 .1.9.3-.4 1.1-.9.6-1.5 1.5-1.1 2 .3.6-.2.9-1.1.7-1.1-.2-1.9.4-2 1.5-.2.9.1 1.5.6 1.1.5-.3.6-1 .3-1.6-.4-.7-.2-.8.4-.4.9.5.8 1.5-.3 3.7-.9 1.6-2 2.7-2.5 2.4-.9-.6-1.2.2-.9 2.1 0 .4-.5 1-1.3 1.5-1.8 1.1-1.7 3 .1 5.3 1.4 1.7 1.4 1.9.1 1.4-1.7-.6-3.7.6-6 3.7-1.5 2-1.4 2 .8.1 1.2-1.1 2.2-1.5 2.2-1.1 0 .5.5.4 1.2-.3 1.7-1.7 3.1-1.5 2.4.4-.5 1.3-.4 1.4.7.6.8-.7 1.8-.8 2.2-.4.5.4.5.1.1-.6-.4-.6-.4-1.2.1-1.3 2.8-.2 4.5-.9 6.8-2.7 2-1.6 2.2-2.1.9-2.6-.8-.3-1.2-.2-.9.3.3.5.1 1.2-.5 1.6-.5.3-1-.3-1-1.4 0-2.3 1.6-3.6 2.5-2.1.3.5 1.1 1 1.8 1 .6 0 .3-.6-.8-1.3-1.2-1-1.4-1.6-.7-2.1.7-.4 1.2-.2 1.2.3 0 .6.5 1.1 1.2 1.1.8 0 .6-.6-.5-1.7-1.6-1.6-1.5-1.8 1.1-3.5 1.5-1 2.2-1.8 1.7-1.8-.6 0-1.6.5-2.3 1.2-.7.7-1.2.8-1.2.2 0-.6.5-1.5 1.2-2.2.8-.8.8-1.5-.1-2.5-.9-1.2-.7-1.5 1.4-1.5 1.4 0 2.2.5 1.8 1.1-.3.6-.1.7.5.3 1.2-.7.5-3.6-.8-3.6-.5 0-1.1.6-1.3 1.2-.4 1-.6 1-.6 0-.1-.7-.5-1.1-1-.8-.4.3-1.7-.1-2.7-.9-1.8-1.5-1.8-1.5.1-.8 1.8.6 1.8.5.6-1-.9-1.1-1-1.7-.2-1.7.6 0 1-.3 1-.8-.4-2.2.3-3 2.2-2.7 2.7.5 3.3 1.1 2 2-.6.3-1.1.2-1.1-.4 0-1.9-2.6-.1-2.7 1.9-.1 1.3.2 1.8.9 1.4.7-.5.8-.2.3.6-.6.9-.4 1.1.5.5.9-.6 1.1-.4.5.6-.8 1.2-.6 1.2.9 0 .9-.8 1.5-2 1.2-2.7-.3-.7 0-1.5.7-1.8.8-.3.4-1.2-1.2-2.5-1.3-1.2-1.8-2.1-1.2-2.1.7 0 1-.4.6-.9-.3-.5-.1-1.2.4-1.6.6-.3.8.3.6 1.3-.2 1.1.6 2.4 1.8 3.1 1.8 1.1 2 1.1 1 0-1.7-1.7-1.7-3.4 0-2.1 1 .8 1.3.6 1.4-.8.1-1.1-.7-2.5-1.8-3-1-.6-1.9-1.5-1.9-2.1 0-.6 1.3-.2 2.9.7 1.7 1 2.7 2.2 2.4 2.7-.4.6-.1.7.7.2 1-.6.7-1.3-1.1-2.7-1.7-1.4-1.9-1.8-.6-1.4 1.1.4 1.6.2 1.2-.5-.4-.6-1.3-.8-2.1-.5-.8.3-1.1 0-.7-.9.4-1.1 1-1.2 2.6-.5 2.2 1.1 2.2 1 0-.6-2-1.4-2.2-5.1-.2-3.8.5.3.7.9.4 1.4-.3.4.2 1 1 1.4.8.3 1.7 0 2.1-.6.4-.6.3-.9-.2-.6-.5.3-1.7-.5-2.7-1.8-1-1.3-1.3-2.4-.8-2.4s1.3.4 1.6 1c.3.5 1.2 1 1.8 1 .7 0 .1-.9-1.3-2-1.4-1.1-1.9-2-1.2-2 .6 0 2.1.9 3.2 2s2 1.5 2 1c0-.6-1.3-1.8-2.9-2.8-2.2-1.3-2.7-2.2-2-3.2.7-1.3.9-1.3.9 0 0 1.1.4.9 1.2-.5.6-1.1 1.8-2.6 2.6-3.3 1.4-1.1 1.4-1.2 0-1.2-.9 0-1.9.8-2.2 1.8-.7 2.2-3.3 2.5-4 .5-.3-.8-.1-1.1.4-.8 1.4.8 5.1-3.6 4.5-5.3-.3-.8.2-1.2 1.2-1 2.5.4 2.8-2.9.3-3.7-1.1-.3-1.8-1-1.5-1.5.3-.5 0-1.2-.6-1.6-.7-.4-.9-.3-.5.4zm3.6 5.1c0 .5-.8.8-1.7.7-1.1 0-1.7.5-1.5 1.5.1.9-.8 2.4-2 3.5-1.4 1.2-1.8 1.3-1 .3.6-.9.9-1.9.5-2.2-.3-.4.2-1.6 1.1-2.6 1-1.1 1.5-2.5 1.1-3.1-.6-.9-.2-.9 1.4-.1 1.1.7 2.1 1.6 2.1 2zm-7.6 12.1c-.6.6-1 .3-1-1s.4-1.6 1-1c.7.7.7 1.3 0 2zm-1 6.5c-.4.8-1.1 1.5-1.8 1.5-.6 0-.4.5.4 1 1.1.7 1.1 1 .2 1-.7 0-1 .4-.7 1 .3.5.1 1-.4 1-.6 0-1.1-.4-1.1-1 0-.5-.8-.6-1.7-.3-.9.4-.1-.8 1.7-2.5 3.7-3.6 4.2-3.8 3.4-1.7zm-4 9.6c1.2-.1 3.6 1.1 3.6 1.8 0 .4-.6.8-1.4.8-.8 0-1.5-.3-1.4-.6.2-1.8-.3-2.2-1.5-1.3-1 .8-1.3.6-1.4-1.1-.2-1.5 0-1.8.6-.9.5.8 1.1 1.3 1.5 1.3zm-.4 11c0 .6-.4.7-1 .4-.5-.3-1-1.1-1-1.6 0-.6.5-.7 1-.4.6.3 1 1.1 1 1.6zm-5 4.7c-.6.2-.4 1 .6 1.6 1.7 1.3 1.1 4.2-.6 3.1-.5-.3-.7.7-.5 2.2.3 2.8-2.1 6.7-3.5 5.8-.4-.3-.7.6-.6 2 0 1.4.6 2.5 1.1 2.5.6 0 .4.4-.4.9s-2.3.8-3.3.6c-1-.2-1.8 0-1.8.6 0 .5-.5.9-1.2.9-.6 0-.8-.3-.5-.7.4-.3.1-1.3-.5-2.1-1.5-1.7-2-4.4-.7-3.6.8.5 1.3-.9 1-2.9-.1-.4 1.1 0 2.6 1 2.8 1.7 2.8 1.7 1-.4-1.7-2-1.7-2.1 1-5.1 3.2-3.4 3.9-5.2 2.1-5.2-.7 0-.5-.5.5-1.1.9-.6 1.5-1.5 1.1-2-.3-.6.3-.5 1.5.3 1.2.7 1.6 1.5 1.1 1.6z"/><path d="M181.9 376.5c-.1.4-.4 2.5-.8 5.6 0 .5-.5.8-1 .5-.5-.3-1.6.5-2.5 1.9-1.2 1.8-1.3 2.6-.3 3.2 3.4 2.1 5.2.7 5.2-4.2 0-1.8.5-2.9 1.3-2.8 1.8.4 1.5-1.4-.4-2.1-.8-.3-1.2-1-.9-1.6.3-.5.4-1 .1-1-.3 0-.7.2-.7.5zm-.8 7.4c.6-1 .8-.6.6 1.1-.3 1.5-1 2.5-2 2.5-1.7 0-1.9-.8-.9-3.4.4-1.2.7-1.2 1-.2.4 1.1.6 1.1 1.3 0z"/><path d="M178.6 385.8c-.3.5.1.9.9.9s1.2-.4.9-.9c-.3-.4-.7-.8-.9-.8-.2 0-.6.4-.9.8zM173.3 390.9c-1 1.6-1 2.2 0 2.8 2.5 1.5 5.3 1 5.4-1 .2-1.9.2-1.9-1.2-.1-1.3 1.8-1.4 1.7-.8-.5.4-1.6.2-2.2-.5-1.8-.5.4-1.2.3-1.4-.3-.2-.6-.9-.1-1.5.9zm2.1 2.2c-.3.5-1 .7-1.5.3-.5-.3-.7-1-.3-1.5.3-.5 1-.7 1.5-.3.5.3.7 1 .3 1.5zM206.7 330.7c.5 1.2.3 1.4-.8.8-.8-.5-1.1-.4-.6 0 .4.5 1.4 1 2.2 1.1 1.2.2 1.2-.2.5-1.7-1.3-2.3-2.2-2.5-1.3-.2zM203.6 334.5c-.9 2.6-.7 3.2.5 1.2.6-1 .9-2.1.6-2.3-.2-.3-.7.2-1.1 1.1zM203 341c0 .5.5 1 1.1 1 .5 0 .7-.5.4-1-.3-.6-.8-1-1.1-1-.2 0-.4.4-.4 1zM199.7 343.7c-.4.3-.7 1.1-.7 1.7 0 .6.5.5 1.2-.2.6-.6.9-1.4.7-1.7-.3-.3-.9-.2-1.2.2zM205 344c0 .5.5 1 1 1 .6 0 1-.5 1-1 0-.6-.4-1-1-1-.5 0-1 .4-1 1zM202.7 346.7c.5 1.2.3 1.4-.8.8-.8-.5-1.1-.4-.6 0 .4.5 1.4 1 2.2 1.1 1.2.2 1.2-.2.5-1.7-1.3-2.3-2.2-2.5-1.3-.2zM202.1 351.6c0 1.1.3 1.4.6.6.3-.7.2-1.6-.1-1.9-.3-.4-.6.2-.5 1.3zM205 350.4c0 .2.7.9 1.5 1.6.9.7 1.5.8 1.5.2 0-.5-.7-1.2-1.5-1.6-.8-.3-1.5-.4-1.5-.2zM199.6 354.7c-.6 1.4-.5 1.5.5.6.7-.7 1-1.5.7-1.8-.3-.3-.9.2-1.2 1.2zM202.5 355.9c.6 1.8.4 2.2-.6 1.6-.8-.5-1.1-.4-.6 0 .4.5 1.6.9 2.7 1 1.9.2 1.9.1.3-1.9-1-1.2-2-2.3-2.2-2.6-.2-.3 0 .6.4 1.9zM205.6 355.3c.3 1 .9 1.5 1.2 1.2.3-.3 0-1.1-.7-1.8-1-.9-1.1-.8-.5.6zM199.5 360c.3.5.8 1 1.1 1 .2 0 .4-.5.4-1 0-.6-.5-1-1.1-1-.5 0-.7.4-.4 1zM201.5 362c-.4.6-.1.9.7.8.7-.2 1.2.3 1 1-.1.8.2 1.1.8.7.8-.5.7-1.1-.1-2.1-1.4-1.7-1.6-1.7-2.4-.4zM181 364c0 .5.5 1 1.1 1 .5 0 .7-.5.4-1-.3-.6-.8-1-1.1-1-.2 0-.4.4-.4 1zM195 366.1c0 .5.5.7 1 .4.6-.3 1-.8 1-1.1 0-.2-.4-.4-1-.4-.5 0-1 .5-1 1.1zM198 365.4c0 .2.9.6 2 .9 1.1.3 1.8.1 1.4-.4-.5-.9-3.4-1.3-3.4-.5zM196.3 368.3c-.3.5 0 1.4.6 2 .9.9 1 .7.5-.7-.5-1.3-.4-1.7.4-1.2.6.3 1.3.3 1.6-.2.3-.5-.2-.9-1-.9s-1.7.4-2.1 1zM191.6 370.7c-.6 1.4-.5 1.5.5.6.7-.7 1-1.5.7-1.8-.3-.3-.9.2-1.2 1.2zM194 371.9c0 .9 3 2.4 3.6 1.8.2-.1-.6-.8-1.6-1.5-1.1-.7-2-.8-2-.3zM199.8 371.7c.7.3 1.6.2 1.9-.1.4-.3-.2-.6-1.3-.5-1.1 0-1.4.3-.6.6zM191 373.9c0 .6.4 1.2.8 1.5.5.3.9-.1.9-.9s-.4-1.5-.9-1.5c-.4 0-.8.4-.8.9zM199.3 374.5c0 .8.4 1.2.9.9.5-.3.6-1 .3-1.5-.9-1.3-1.2-1.1-1.2.6zM196.4 376.1c-.3.6-.2 1.5.3 2s.9.1.9-1.1c0-2.3-.2-2.4-1.2-.9zM191.6 378.7c-.6 1.4-.5 1.5.5.6.7-.7 1-1.5.7-1.8-.3-.3-.9.2-1.2 1.2zM188 380.4c0 .2.7.7 1.6 1 .8.3 1.2.2.9-.4-.6-1-2.5-1.4-2.5-.6zM191.6 384.2c.3.5 1 .6 1.5.3 1.3-.9 1.1-1.2-.6-1.2-.8 0-1.2.4-.9.9zM194.9 385.7c-1.3 1.6-1.2 1.7.4.4 1.6-1.3 2.1-2.1 1.3-2.1-.2 0-1 .8-1.7 1.7zM384.1 384.8c-.1.7-.6 1-1.3.6-.6-.4-.8-.3-.5.4.8 1.2 3.2 1 4.4-.3.4-.4.3-.5-.4-.2-.6.4-1.4.1-1.6-.5-.4-1-.6-1-.6 0zM187 386c0 .5.5 1 1 1 .6 0 1-.5 1-1 0-.6-.4-1-1-1-.5 0-1 .4-1 1zM391.2 385.7c.1.4-.3 1.8-1 3-1.7 3.1-.8 2.9 1.2-.1 1-1.6 1.2-2.7.6-3.1-.6-.4-.9-.3-.8.2zM189.4 388.2c-.5.7-.2.8.6.3 1-.6 1.2-.4.6 1-.5 1.5-.4 1.6.9.5 1.9-1.5 1.9-1.6 0-2.3-.8-.4-1.7-.1-2.1.5zM394 388.2c0 .4.4.8.9.8.6 0 1.2-.4 1.5-.8.3-.5-.1-.9-.9-.9s-1.5.4-1.5.9zM398.6 388.1c.2.4 1.3.7 2.4.6 2.3-.2 1.7-1-1-1.2-1-.1-1.7.2-1.4.6zM431.6 387.8c-.3.5.1.9.9.9s1.2-.4.9-.9c-.3-.4-.7-.8-.9-.8-.2 0-.6.4-.9.8zM391.6 390.7c-.6 1.4-.5 1.5.5.6.7-.7 1-1.5.7-1.8-.3-.3-.9.2-1.2 1.2zM395.9 391.1c-.6 1.3-.7 1.9-.1 1.5.6-.3 1.2-.1 1.4.6.2.6 1.2 1.2 2.1 1.4.9.1 1.5-.2 1.1-.7-.3-.5-.9-.7-1.4-.4-.4.3-1.1-.2-1.4-1.1-.9-2.2-.8-2.6.6-1.8.7.4.8.3.4-.4-1-1.6-1.4-1.5-2.7.9zM409.9 389.2c-.5 1.8-.6 3.8-.1 3.4.7-.8 1.2-3.6.6-3.6-.2 0-.4.1-.5.2zM404.5 392.1c-.3.4.2.6 1 .5 2.1-.3 2.8-1.3 1-1.3-.9 0-1.8.4-2 .8zM411.1 393.3c-.8 1-.7 1.4.2 1.4.8 0 1.4-.6 1.4-1.4 0-.7-.1-1.3-.2-1.3-.2 0-.8.6-1.4 1.3zM185.5 393.9c-.3.5 0 1.3.6 1.7.7.4.9.3.5-.4-.3-.6.3-1.2 1.6-1.5 2.3-.4 2.3-.4.1-.6-1.2 0-2.4.3-2.8.8zM191.5 394c.3.5.8 1 1.1 1 .2 0 .4-.5.4-1 0-.6-.5-1-1.1-1-.5 0-.7.4-.4 1zM391 394.2c0 .6.6.8 1.4.5.8-.3 1.7-.2 2 .4.2.5.3.4.2-.2-.3-1.5-3.6-2.1-3.6-.7zM407.4 394.8c.3.5 0 1.3-.6 1.5-.8.3-.6.6.5.6 1.9.1 2.3-1.4.5-2.5-.6-.4-.8-.3-.4.4zM415.3 396.5c0 .8.4 1.2.9.9.5-.3.6-1 .3-1.5-.9-1.3-1.2-1.1-1.2.6zM436 396c.8.5 2 1 2.5 1 .6 0 .3-.5-.5-1s-1.9-1-2.5-1c-.5 0-.3.5.5 1zM399.8 396.7c.7.3 1.6.2 1.9-.1.4-.3-.2-.6-1.3-.5-1.1 0-1.4.3-.6.6zM434 401.5c0 .2.6.8 1.3 1.4 1 .8 1.4.7 1.4-.2 0-.8-.6-1.4-1.4-1.4-.7 0-1.3.1-1.3.2zM443.5 402.9c-.3.5-.2 1.2.3 1.5.5.3.9-.1.9-.9 0-1.7-.3-1.9-1.2-.6zM452.7 406.1c.7.7 1.5 1 1.8.7.3-.3-.2-.9-1.2-1.2-1.4-.6-1.5-.5-.6.5zM441.2 406.9c-1.1.7-1.1.9 0 1.4.9.3 1.5-.1 1.5-.9s-.1-1.4-.1-1.4c-.1 0-.7.4-1.4.9zM450 407.4c0 .2.8 1 1.8 1.7 1.5 1.3 1.6 1.2.3-.4s-2.1-2.1-2.1-1.3zM447.1 409.3c-.8 1-.7 1.4.2 1.4.8 0 1.4-.6 1.4-1.4 0-.7-.1-1.3-.2-1.3-.2 0-.8.6-1.4 1.3zM462 410c-.9.6-1 1-.3 1 .6 0 1.5-.5 1.8-1 .8-1.2.4-1.2-1.5 0zM451 411.7c0 .6.8 1.7 1.8 2.4 1.6 1.3 1.6 1.3.2-.6-.8-1.1-1.6-2.2-1.7-2.4-.2-.2-.3 0-.3.6zM471.7 414.7c-1 .9-.9 2.3.1 2.3.5 0 .9-.7.9-1.5 0-1.7-.1-1.8-1-.8zM458 417.5c0 .2.6.8 1.3 1.4 1 .8 1.4.7 1.4-.2 0-.8-.6-1.4-1.4-1.4-.7 0-1.3.1-1.3.2zM467.3 419.3c0 .8.6 1.4 1.4 1.4.9 0 1-.4.2-1.4-.6-.7-1.2-1.3-1.4-1.3-.1 0-.2.6-.2 1.3zM471 419.4c0 .2.7.7 1.6 1 .8.3 1.2.2.9-.4-.6-1-2.5-1.4-2.5-.6zM468.6 425.8c-.3.5.1.9.9.9s1.2-.4.9-.9c-.3-.4-.7-.8-.9-.8-.2 0-.6.4-.9.8zM473.5 426c.3.5.8 1 1.1 1 .2 0 .4-.5.4-1 0-.6-.5-1-1.1-1-.5 0-.7.4-.4 1zM477.5 426c.3.5.8 1 1.1 1 .2 0 .4-.5.4-1 0-.6-.5-1-1.1-1-.5 0-.7.4-.4 1zM264.6 428.8c-.3.5-1.6.8-2.9.7-1.4-.2-2.4.2-2.4 1.1 0 .9.6 1 1.6.5.9-.5 2.4-.7 3.3-.6 2 .4 3.3-1.1 1.9-1.9-.5-.4-1.2-.2-1.5.2zM315 429c0 .5.5 1 1.1 1 .5 0 .7-.5.4-1-.3-.6-.8-1-1.1-1-.2 0-.4.4-.4 1zM324 428.9c0 .6.4 1.3 1 1.6.6.3.7-.1.4-.9-.7-1.8-1.4-2.1-1.4-.7zM268.6 430.2c.3.5 1 .6 1.5.3 1.3-.9 1.1-1.2-.6-1.2-.8 0-1.2.4-.9.9zM320.6 430.2c.3.5 1 .6 1.5.3 1.3-.9 1.1-1.2-.6-1.2-.8 0-1.2.4-.9.9zM327.6 429.8c-.3.5.1.9.9.9s1.2-.4.9-.9c-.3-.4-.7-.8-.9-.8-.2 0-.6.4-.9.8zM343 430c0 .5.5 1 1.1 1 .5 0 .7-.5.4-1-.3-.6-.8-1-1.1-1-.2 0-.4.4-.4 1zM251.4 431.1c-.3.6-.2 1.5.3 2s.9.1.9-1.1c0-2.3-.2-2.4-1.2-.9zM236 432.4c0 .8.4 1.7.9 2 .5.4.7-.3.4-1.4-.6-2.3-1.3-2.6-1.3-.6zM238.6 431.8c-.3.5.1.9.9.9s1.5-.4 1.5-.9c0-.4-.4-.8-.9-.8-.6 0-1.2.4-1.5.8zM242.4 432.9c0 1.9 1.9 2.2 3.3.6.4-.4.2-.5-.4-.1-.8.4-1.3.1-1.3-.8s-.4-1.6-.8-1.6-.8.8-.8 1.9zM270.2 431.9c-.9.5-.4.8 1.6.7 1.7-.1 2.8-.4 2.5-.9-.6-.9-2.5-.9-4.1.2zM286.6 432.2c.3.5 1 .6 1.5.3 1.3-.9 1.1-1.2-.6-1.2-.8 0-1.2.4-.9.9zM317 432.1c0 .5.5.7 1 .4.6-.3 1-.8 1-1.1 0-.2-.4-.4-1-.4-.5 0-1 .5-1 1.1zM351.6 432.7c-.6 1.4-.5 1.5.5.6.7-.7 1-1.5.7-1.8-.3-.3-.9.2-1.2 1.2zM216.7 434.5c-1.5 1.1-1.7 1.7-.8 3.2 1.1 1.7 1.1 1.7.9-.1-.2-1 .3-2.1 1.1-2.4.9-.3 1.1 0 .6.7-.5.9-.1.9 1.4-.1 1.2-.7 2.1-1.7 2.1-2.2 0-.4-.6-.3-1.4.3-.8.7-1.5.8-1.8.2-.2-.5-1.1-.4-2.1.4zM278.5 434c-.3.6.1.7.9.4 1.8-.7 2.1-1.4.7-1.4-.6 0-1.3.4-1.6 1zM377.3 434.5c0 .8.4 1.2.9.9.5-.3.6-1 .3-1.5-.9-1.3-1.2-1.1-1.2.6zM209 436c0 .5.5 1 1.1 1 .5 0 .7-.5.4-1-.3-.6-.8-1-1.1-1-.2 0-.4.4-.4 1zM222 436c-.9.6-1 1-.3 1 .6 0 1.5-.5 1.8-1 .8-1.2.4-1.2-1.5 0zM225 436c0 .5.8.7 1.8.5.9-.1 2.3.2 3 .8.9.7 1.1.6.7-.5-.6-1.6-5.5-2.2-5.5-.8zM200.4 437.4c-.3.8-1.2 1.2-2 .9-.8-.3-1.4-.3-1.4 0 0 1.6 3.1 1.3 4-.3.6-1.1.8-2 .5-2-.3 0-.8.6-1.1 1.4zM204.8 436.7c-2 .5-3.1 3-1.7 3.8.5.4.8.2.7-.4-.2-.5.6-1.7 1.7-2.5 2.1-1.6 2.1-1.6-.7-.9zM213.3 438.5c0 .8.4 1.2.9.9.5-.3.6-1 .3-1.5-.9-1.3-1.2-1.1-1.2.6zM193.5 438.9c-.3.6-1 .9-1.4.7-.4-.3-1.3-.1-2 .3-1 .6-.9 1 .3 1.4.8.3 2.2-.1 3.1-.9.8-.9 1.6-1.3 1.6-1 .1.3.2 1 .3 1.5 0 .5.4 1.2.8 1.6.3.4.5 0 .4-.9-.3-2.4-2.2-4-3.1-2.7zM207 439c0 .5.5 1 1 1 .6 0 1-.5 1-1 0-.6-.4-1-1-1-.5 0-1 .4-1 1zM211 439.4c0 .8.4 1.7.9 2 .5.4.7-.3.4-1.4-.6-2.3-1.3-2.6-1.3-.6zM181.4 440.8c.3.6-.2 1.3-1.1 1.5-1.6.4-1.6.5-.1.6 2.1.1 3.2-1.5 1.7-2.5-.7-.4-.9-.3-.5.4zM184.5 441c-.3.6.1.7.9.4 1.8-.7 2.1-1.4.7-1.4-.6 0-1.3.4-1.6 1zM177 442.9c0 .7-.5.9-1.2.5-.7-.5-.8-.3-.3.5.5.9 1 1 1.8.2.6-.6.8-1.4.4-1.8-.4-.3-.7-.1-.7.6zM187 443.4c0 .8.4 1.7.8 2 .4.2.8-.4.8-1.5 0-1-.4-1.9-.8-1.9s-.8.6-.8 1.4zM171.3 444.5c0 .7.6 1.1 1.4.8.7-.3 1.3-.6 1.3-.8 0-.2-.6-.5-1.3-.8-.8-.3-1.4.1-1.4.8zM183 444.1c0 .5.5.7 1 .4.6-.3 1-.8 1-1.1 0-.2-.4-.4-1-.4-.5 0-1 .5-1 1.1zM193.6 443.8c-.3.5.1.9.9.9s1.2-.4.9-.9c-.3-.4-.7-.8-.9-.8-.2 0-.6.4-.9.8zM167 446c0 .5.7.7 1.5.4.8-.4 1.5-.8 1.5-1 0-.2-.7-.4-1.5-.4s-1.5.4-1.5 1zM159.3 447.5c0 .8.4 1.2.9.9.5-.3.6-1 .3-1.5-.9-1.3-1.2-1.1-1.2.6zM154.5 448c-.3.5-.1 1 .5 1s.8.5.4 1.2-.3.8.4.4c.6-.4.9-1.3.5-2.1-.6-1.8-1-1.9-1.8-.5zM162 447.4c0 .2.8 1 1.8 1.7 1.5 1.3 1.6 1.2.3-.4s-2.1-2.1-2.1-1.3zM159 452c0 .5.5 1 1.1 1 .5 0 .7-.5.4-1-.3-.6-.8-1-1.1-1-.2 0-.4.4-.4 1zM131 456c-.9.6-1 1-.3 1 .6 0 1.5-.5 1.8-1 .8-1.2.4-1.2-1.5 0zM136 458c-.9.6-1 1-.3 1 .6 0 1.5-.5 1.8-1 .8-1.2.4-1.2-1.5 0zM124.9 459.2c-.8.7-1.2 1.2-1 1.1.2-.2.9.1 1.5.7.8.6 1.2.3 1.2-1.1 0-1-.1-1.9-.1-1.9-.1 0-.8.6-1.6 1.2zM121.3 463.5c0 .8.4 1.5.9 1.5.4 0 .8-.4.8-.9 0-.6-.4-1.2-.8-1.5-.5-.3-.9.1-.9.9zM101.5 470.1c-.3.4.2.6 1 .5 2.1-.3 2.8-1.3 1-1.3-.9 0-1.8.4-2 .8zM99.5 474c-.3.5-.1 1 .4 1 .6 0 1.1-.5 1.1-1 0-.6-.2-1-.4-1-.3 0-.8.4-1.1 1zM107 494.4c0 .2.8 1 1.8 1.7 1.5 1.3 1.6 1.2.3-.4s-2.1-2.1-2.1-1.3z"/></svg>